<svg aria-hidden="true" style="position: absolute; width: 0; height: 0; overflow: hidden;" version="1.1" xmlns="http://www.w3.org/2000/svg" xmlns:xlink="http://www.w3.org/1999/xlink">
<defs>
<symbol id="icon-design_services" viewBox="0 0 24 24">
<path d="M16.219 11.531l1.594-1.594-3.75-3.75-1.594 1.594-4.125-4.172q-0.563-0.563-1.406-0.563t-1.406 0.563l-1.922 1.922q-0.563 0.563-0.563 1.406t0.563 1.406l4.125 4.125-4.734 4.781v3.75h3.75l4.781-4.781 4.125 4.172q0.469 0.469 1.008 0.539t1.031-0.094 0.773-0.445l1.922-1.922q0.563-0.563 0.563-1.406t-0.563-1.406zM9.188 11.063l-4.125-4.125 1.875-1.875 1.266 1.266-1.172 1.172 1.406 1.406 1.172-1.172 1.453 1.453zM17.063 18.938l-4.125-4.125 1.875-1.875 1.453 1.453-1.172 1.172 1.406 1.406 1.172-1.172 1.266 1.266zM20.719 7.031q0.281-0.281 0.281-0.703t-0.281-0.703l-2.344-2.344q-0.375-0.328-0.797-0.258t-0.609 0.258l-1.828 1.828 3.75 3.75z"></path>
</symbol>
<symbol id="icon-important_devices" viewBox="0 0 24 24">
<path d="M11.953 9h3.047l-2.484 1.781 0.938 2.906-2.438-1.828-2.484 1.828 0.938-2.906-2.484-1.781h3.047l0.984-3zM20.016 2.016q0.844 0 1.406 0.563t0.563 1.406v5.016h-1.969v-5.016h-18v12h12.984v2.016h-2.016v2.016h2.016v1.969h-8.016v-1.969h2.016v-2.016h-6.984q-0.844 0-1.43-0.586t-0.586-1.43v-12q0-0.844 0.586-1.406t1.43-0.563h18zM23.016 20.016v-7.031h-5.016v7.031h5.016zM23.016 11.016q0.422 0 0.703 0.281t0.281 0.703v9q0 0.422-0.281 0.703t-0.703 0.281h-5.016q-0.422 0-0.703-0.281t-0.281-0.703v-9q0-0.422 0.281-0.703t0.703-0.281h5.016z"></path>
</symbol>
<symbol id="icon-flip_to_front" viewBox="0 0 24 24">
<path d="M6.984 21v-2.016h2.016v2.016h-2.016zM11.016 21v-2.016h1.969v2.016h-1.969zM18.984 15v-9.984h-9.984v9.984h9.984zM18.984 3q0.797 0 1.406 0.609t0.609 1.406v9.984q0 0.797-0.609 1.406t-1.406 0.609h-9.984q-0.844 0-1.43-0.586t-0.586-1.43v-9.984q0-0.844 0.586-1.43t1.43-0.586h9.984zM15 21v-2.016h2.016v2.016h-2.016zM3 9v-2.016h2.016v2.016h-2.016zM5.016 21q-0.844 0-1.43-0.586t-0.586-1.43h2.016v2.016zM3 17.016v-2.016h2.016v2.016h-2.016zM3 12.984v-1.969h2.016v1.969h-2.016z"></path>
</symbol>
<symbol id="icon-miscellaneous_services" viewBox="0 0 24 24">
<path d="M14.156 13.688l1.406-2.391q0.141-0.281-0.094-0.469l-1.453-1.125q0.047-0.375 0.047-0.703t-0.047-0.703l1.453-1.125q0.234-0.234 0.094-0.469l-1.406-2.438q-0.141-0.234-0.422-0.141l-1.734 0.703q-0.563-0.422-1.172-0.703l-0.281-1.828q-0.047-0.281-0.328-0.281h-2.813q-0.281 0-0.328 0.281l-0.281 1.875q-0.656 0.234-1.172 0.656l-1.734-0.703q-0.281-0.094-0.422 0.188l-1.406 2.391q-0.188 0.281 0.047 0.469l1.5 1.125q-0.047 0.375-0.047 0.703t0.047 0.703l-1.5 1.125q-0.234 0.234-0.047 0.469l1.406 2.438q0.141 0.234 0.422 0.141l1.734-0.703q0.563 0.422 1.172 0.703l0.281 1.828q0.047 0.281 0.328 0.281h2.813q0.281 0 0.328-0.281l0.281-1.875q0.656-0.234 1.172-0.656l1.734 0.703q0.281 0.094 0.422-0.188zM8.813 11.016q-0.844 0-1.43-0.586t-0.586-1.43 0.586-1.43 1.43-0.586 1.43 0.586 0.586 1.43-0.586 1.43-1.43 0.586zM21.938 18.656l-0.984-0.703q0-0.141 0.023-0.234t0.023-0.234q0-0.234-0.047-0.422l0.938-0.75q0.188-0.141 0.047-0.281l-0.891-1.547q-0.047-0.188-0.281-0.094l-1.078 0.422q-0.375-0.281-0.797-0.422l-0.141-1.172q-0.047-0.234-0.234-0.234h-1.781q-0.188 0-0.234 0.188l-0.141 1.219q-0.234 0.047-0.422 0.164t-0.328 0.258l-1.125-0.469q-0.188-0.047-0.281 0.094l-0.891 1.594q-0.094 0.141 0.047 0.281l0.938 0.75q-0.047 0.188-0.047 0.422t0.047 0.422l-0.938 0.75q-0.141 0.141-0.047 0.281l0.891 1.547q0.094 0.188 0.281 0.094l1.125-0.422q0.328 0.281 0.75 0.422l0.141 1.172q0.047 0.188 0.234 0.188h1.781q0.234 0 0.234-0.188l0.188-1.172 0.375-0.188t0.375-0.234l1.125 0.422q0.141 0.094 0.234-0.094l0.938-1.547q0.094-0.141-0.047-0.281zM17.625 18.844q-0.563 0-0.961-0.398t-0.398-0.961 0.398-0.961 0.961-0.398 0.961 0.398 0.398 0.961-0.398 0.961-0.961 0.398z"></path>
</symbol>
<symbol id="icon-github" viewBox="0 0 32 32">
<path d="M16 0.395c-8.836 0-16 7.163-16 16 0 7.069 4.585 13.067 10.942 15.182 0.8 0.148 1.094-0.347 1.094-0.77 0-0.381-0.015-1.642-0.022-2.979-4.452 0.968-5.391-1.888-5.391-1.888-0.728-1.849-1.776-2.341-1.776-2.341-1.452-0.993 0.11-0.973 0.11-0.973 1.606 0.113 2.452 1.649 2.452 1.649 1.427 2.446 3.743 1.739 4.656 1.33 0.143-1.034 0.558-1.74 1.016-2.14-3.554-0.404-7.29-1.777-7.29-7.907 0-1.747 0.625-3.174 1.649-4.295-0.166-0.403-0.714-2.030 0.155-4.234 0 0 1.344-0.43 4.401 1.64 1.276-0.355 2.645-0.532 4.005-0.539 1.359 0.006 2.729 0.184 4.008 0.539 3.054-2.070 4.395-1.64 4.395-1.64 0.871 2.204 0.323 3.831 0.157 4.234 1.026 1.12 1.647 2.548 1.647 4.295 0 6.145-3.743 7.498-7.306 7.895 0.574 0.497 1.085 1.47 1.085 2.963 0 2.141-0.019 3.864-0.019 4.391 0 0.426 0.288 0.925 1.099 0.768 6.354-2.118 10.933-8.113 10.933-15.18 0-8.837-7.164-16-16-16z"></path>
</symbol>
<symbol id="icon-linkedin2" viewBox="0 0 32 32">
<path d="M12 12h5.535v2.837h0.079c0.77-1.381 2.655-2.837 5.464-2.837 5.842 0 6.922 3.637 6.922 8.367v9.633h-5.769v-8.54c0-2.037-0.042-4.657-3.001-4.657-3.005 0-3.463 2.218-3.463 4.509v8.688h-5.767v-18z"></path>
<path d="M2 12h6v18h-6v-18z"></path>
<path d="M8 7c0 1.657-1.343 3-3 3s-3-1.343-3-3c0-1.657 1.343-3 3-3s3 1.343 3 3z"></path>
</symbol>
</defs>
</svg>
